<svg width="19" height="19" viewBox="0 0 19 19" fill="none" xmlns="http://www.w3.org/2000/svg">
<path d="M16.0434 17.2255H2.61122C1.96449 17.2255 1.42969 16.6907 1.42969 16.0439V2.62424C1.42969 1.97751 1.96449 1.44271 2.61122 1.44271H13.7922L17.2249 4.86293V16.0439C17.2249 16.6907 16.6901 17.2255 16.0434 17.2255ZM2.61122 2.18894C2.37491 2.18894 2.17592 2.38793 2.17592 2.62424V16.0439C2.17592 16.2803 2.37491 16.4792 2.61122 16.4792H16.0434C16.2797 16.4792 16.4787 16.2803 16.4787 16.0439V5.16142L13.4937 2.18894H2.61122Z" fill="white"/>
<path d="M12.1272 6.70363H6.51799C6.0205 6.70363 5.61007 6.2932 5.61007 5.79572V1.44271H13.0351V5.79572C13.0351 6.2932 12.6246 6.70363 12.1272 6.70363ZM6.3563 2.18894V5.79572C6.3563 5.89521 6.44336 5.9574 6.51799 5.9574H12.1272C12.2142 5.9574 12.2888 5.88278 12.2888 5.79572V2.18894H6.3563ZM14.3907 17.213H4.2793V9.98704C4.2793 9.48956 4.68972 9.07913 5.18721 9.07913H13.4704C13.9679 9.07913 14.3907 9.48956 14.3907 9.98704V17.213ZM5.02553 16.4668H13.6445V9.98704C13.6445 9.91242 13.5699 9.82536 13.4704 9.82536H5.18721C5.10015 9.82536 5.02553 9.89998 5.02553 9.98704V16.4668Z" fill="white"/>
<path d="M10.3594 1.81584H11.1056V6.33053H10.3594V1.81584Z" fill="white"/>
</svg>
