<svg width="19" height="19" viewBox="0 0 19 19" fill="none" xmlns="http://www.w3.org/2000/svg">
<path d="M17.4554 6.29116L13.9379 2.28075C13.6287 1.9279 13.1813 1.72602 12.712 1.72602H5.82975C5.36232 1.72602 4.91854 1.92608 4.60935 2.27529L1.09728 6.24388C0.549823 6.86226 0.548004 7.7953 1.09364 8.41368L8.05048 16.329C8.35968 16.6801 8.80528 16.8838 9.27452 16.8838H9.27634C9.74377 16.8838 10.1894 16.6819 10.5004 16.3327L17.4536 8.45915C17.9974 7.84077 17.9992 6.90955 17.4554 6.29116ZM16.6952 7.78984L9.74013 15.6634C9.62009 15.7998 9.45458 15.8743 9.27452 15.8743H9.27271C9.09265 15.8743 8.92714 15.7998 8.8071 15.6634L1.85207 7.74619C1.64291 7.50793 1.64291 7.14963 1.85389 6.91319L5.36596 2.94642C5.48418 2.81365 5.65333 2.73726 5.82975 2.73726H12.712C12.8903 2.73726 13.0612 2.81365 13.1776 2.94824L16.6952 6.95866C16.9043 7.1951 16.9043 7.5534 16.6952 7.78984Z" fill="white"/>
<path d="M13.3967 8.37367L9.23169 12.9916L5.15943 8.35912C4.97573 8.14996 4.65563 8.12996 4.44647 8.31365C4.23731 8.49735 4.2173 8.81746 4.401 9.02662L8.47144 13.6591C8.67332 13.89 8.96614 14.0228 9.27352 14.0228H9.27534C9.58089 14.0228 9.87372 13.8919 10.0756 13.6609L14.1551 9.04299C14.3406 8.83383 14.3206 8.51372 14.1115 8.33002C13.9005 8.14633 13.5822 8.16451 13.3967 8.37367Z" fill="white"/>
</svg>
