<svg width="75" height="21" viewBox="0 0 75 21" fill="none" xmlns="http://www.w3.org/2000/svg">
<g clip-path="url(#clip0_1040_53)">
<path fill-rule="evenodd" clip-rule="evenodd" d="M10.4 20.7999C4.68 20.7999 0 16.1199 0 10.3479C0.052 4.62791 4.68 -0.0520896 10.452 -8.96129e-05C16.172 0.0519104 20.8 4.67991 20.8 10.5039C20.748 16.1719 16.12 20.7999 10.4 20.7999Z" fill="white"/>
<path fill-rule="evenodd" clip-rule="evenodd" d="M11.3882 9.15191L11.0762 10.8159L14.0402 11.2319L13.8322 12.0119L10.9202 11.5959C10.7122 12.2719 10.6082 12.9999 10.3482 13.6239C10.0882 14.3519 9.8282 15.0799 9.5162 15.7559C9.1002 16.6399 8.3722 17.2639 7.3842 17.4199C6.8122 17.5239 6.1882 17.4719 5.7202 17.1079C5.5642 17.0039 5.4082 16.7959 5.4082 16.6399C5.4082 16.4319 5.5122 16.1719 5.6682 16.0679C5.7722 16.0159 6.0322 16.0679 6.1882 16.1199C6.3442 16.2759 6.5002 16.4839 6.6042 16.6919C6.9162 17.1079 7.3322 17.1599 7.7482 16.8479C8.2162 16.4319 8.4762 15.8599 8.6322 15.2879C8.9442 14.0399 9.2562 12.8439 9.5162 11.5959V11.3879L6.7602 10.9719L6.8642 10.1919L9.7242 10.6079L10.0882 8.99591L7.1242 8.52791L7.2282 7.69591L10.2962 8.11191C10.4002 7.79991 10.4522 7.53991 10.5562 7.27991C10.8162 6.34391 11.0762 5.40791 11.7002 4.57591C12.3242 3.74391 13.0522 3.22391 14.1442 3.27591C14.6122 3.27591 15.0802 3.43191 15.3922 3.79591C15.4442 3.84791 15.5482 3.95191 15.5482 4.05591C15.5482 4.26391 15.5482 4.52391 15.3922 4.67991C15.1842 4.83591 14.9242 4.78391 14.7162 4.57591C14.5602 4.41991 14.4562 4.26391 14.3002 4.10791C13.9882 3.69191 13.5202 3.63991 13.1562 4.00391C12.8962 4.26391 12.6362 4.62791 12.4802 4.99191C12.1162 6.08391 11.8562 7.22791 11.4922 8.37191L14.3522 8.78791L14.1442 9.56791L11.3882 9.15191Z" fill="#0176CE"/>
</g>
<path d="M26.5866 15.4V5.72727H32.7633V7.06763H28.2447V9.90036H31.9342V11.2131H28.2447V15.4H26.5866ZM33.7831 15.4V8.43563H35.4413V15.4H33.7831ZM34.6122 7.33018C34.3082 7.33018 34.0549 7.23805 33.8522 7.05381C33.6588 6.86036 33.562 6.62545 33.562 6.34909C33.562 6.06351 33.6588 5.83321 33.8522 5.65818C34.0549 5.47393 34.3082 5.38181 34.6122 5.38181C34.9162 5.38181 35.165 5.47393 35.3584 5.65818C35.5611 5.83321 35.6624 6.06351 35.6624 6.34909C35.6624 6.62545 35.5611 6.86036 35.3584 7.05381C35.165 7.23805 34.9162 7.33018 34.6122 7.33018ZM36.943 15.4V5.4509H38.6011V15.4H36.943ZM43.298 15.5658C42.6071 15.5658 41.9991 15.4184 41.474 15.1236C40.9489 14.8196 40.539 14.3959 40.2442 13.8524C39.9494 13.3088 39.802 12.6824 39.802 11.9731C39.802 11.2361 39.9448 10.5913 40.2304 10.0385C40.5252 9.48581 40.9351 9.05284 41.4602 8.73963C41.9945 8.42642 42.6117 8.26981 43.3118 8.26981C43.9935 8.26981 44.5877 8.42181 45.0944 8.72581C45.6011 9.02981 45.9926 9.43975 46.2689 9.95563C46.5453 10.4623 46.6835 11.0334 46.6835 11.6691C46.6835 11.7612 46.6835 11.8625 46.6835 11.9731C46.6835 12.0836 46.6743 12.1988 46.6558 12.3185H40.9904V11.2545H45.0115C44.9931 10.7479 44.8226 10.3518 44.5002 10.0662C44.1778 9.77139 43.7771 9.62399 43.298 9.62399C42.9572 9.62399 42.644 9.7023 42.3584 9.8589C42.0728 10.0155 41.8471 10.2504 41.6813 10.5636C41.5155 10.8676 41.4326 11.2545 41.4326 11.7244V12.1251C41.4326 12.5581 41.5109 12.9311 41.6675 13.2444C41.8333 13.5576 42.0544 13.7971 42.3308 13.9629C42.6163 14.1195 42.9342 14.1978 43.2842 14.1978C43.6711 14.1978 43.9889 14.1149 44.2377 13.9491C44.4956 13.7833 44.6845 13.5622 44.8042 13.2858H46.49C46.3611 13.7188 46.1492 14.1103 45.8544 14.4604C45.5596 14.8012 45.1957 15.073 44.7628 15.2756C44.3298 15.4691 43.8415 15.5658 43.298 15.5658ZM51.1025 15.5658C50.4208 15.5658 49.8082 15.4138 49.2647 15.1098C48.7304 14.7966 48.3112 14.3682 48.0072 13.8247C47.7124 13.272 47.565 12.6456 47.565 11.9454C47.565 11.2177 47.7124 10.5821 48.0072 10.0385C48.3112 9.48581 48.7304 9.05284 49.2647 8.73963C49.8082 8.42642 50.4254 8.26981 51.1163 8.26981C51.9823 8.26981 52.71 8.50012 53.2996 8.96072C53.8892 9.41212 54.2669 10.0339 54.4327 10.8262H52.6916C52.5995 10.4761 52.406 10.1998 52.1112 9.99709C51.8256 9.79442 51.4848 9.69309 51.0887 9.69309C50.7478 9.69309 50.4346 9.7806 50.149 9.95563C49.8727 10.1307 49.6516 10.384 49.4858 10.7156C49.3292 11.0473 49.2509 11.448 49.2509 11.9178C49.2509 12.2771 49.2969 12.5949 49.389 12.8713C49.4812 13.1476 49.6101 13.3825 49.7759 13.576C49.951 13.7602 50.149 13.903 50.3701 14.0044C50.5912 14.1057 50.8307 14.1564 51.0887 14.1564C51.3558 14.1564 51.5953 14.1149 51.8072 14.032C52.0283 13.9399 52.2126 13.8063 52.3599 13.6313C52.5166 13.4562 52.6271 13.249 52.6916 13.0094H54.4327C54.2669 13.7833 53.8892 14.4051 53.2996 14.8749C52.71 15.3355 51.9776 15.5658 51.1025 15.5658ZM58.8642 15.5658C58.2009 15.5658 57.6021 15.4138 57.0678 15.1098C56.5428 14.7966 56.1282 14.3682 55.8242 13.8247C55.5294 13.272 55.382 12.641 55.382 11.9316C55.382 11.2039 55.534 10.5682 55.838 10.0247C56.142 9.47199 56.5566 9.04363 57.0817 8.73963C57.616 8.42642 58.2148 8.26981 58.878 8.26981C59.5413 8.26981 60.1355 8.42642 60.6606 8.73963C61.1949 9.04363 61.6094 9.46739 61.9042 10.0109C62.2082 10.5544 62.3602 11.1901 62.3602 11.9178C62.3602 12.6456 62.2082 13.2812 61.9042 13.8247C61.6002 14.3682 61.1811 14.7966 60.6468 15.1098C60.1217 15.4138 59.5275 15.5658 58.8642 15.5658ZM58.8642 14.1425C59.1958 14.1425 59.4952 14.0596 59.7624 13.8938C60.0388 13.728 60.2598 13.4793 60.4257 13.1476C60.5915 12.816 60.6744 12.4061 60.6744 11.9178C60.6744 11.4296 60.5915 11.0242 60.4257 10.7018C60.2691 10.3702 60.0526 10.1214 59.7762 9.95563C59.5091 9.78981 59.2097 9.7069 58.878 9.7069C58.5556 9.7069 58.2562 9.78981 57.9798 9.95563C57.7035 10.1214 57.4824 10.3702 57.3166 10.7018C57.1508 11.0242 57.0678 11.4296 57.0678 11.9178C57.0678 12.4061 57.1508 12.816 57.3166 13.1476C57.4824 13.4793 57.6989 13.728 57.966 13.8938C58.2424 14.0596 58.5418 14.1425 58.8642 14.1425ZM63.638 15.4V8.43563H65.2961V15.4H63.638ZM64.4671 7.33018C64.1631 7.33018 63.9097 7.23805 63.7071 7.05381C63.5136 6.86036 63.4169 6.62545 63.4169 6.34909C63.4169 6.06351 63.5136 5.83321 63.7071 5.65818C63.9097 5.47393 64.1631 5.38181 64.4671 5.38181C64.7711 5.38181 65.0198 5.47393 65.2132 5.65818C65.4159 5.83321 65.5172 6.06351 65.5172 6.34909C65.5172 6.62545 65.4159 6.86036 65.2132 7.05381C65.0198 7.23805 64.7711 7.33018 64.4671 7.33018ZM66.7978 15.4V8.43563H68.2625L68.3869 9.59636C68.5988 9.19102 68.9028 8.8686 69.2989 8.62909C69.695 8.38957 70.1648 8.26981 70.7083 8.26981C71.2703 8.26981 71.7493 8.38957 72.1454 8.62909C72.5415 8.85939 72.8455 9.20024 73.0574 9.65163C73.2785 10.103 73.3891 10.665 73.3891 11.3374V15.4H71.7309V11.4894C71.7309 10.9091 71.6019 10.4623 71.344 10.1491C71.086 9.83587 70.7037 9.67927 70.1971 9.67927C69.8654 9.67927 69.566 9.75757 69.2989 9.91418C69.0409 10.0708 68.8337 10.3011 68.6771 10.6051C68.5297 10.8999 68.456 11.2591 68.456 11.6829V15.4H66.7978Z" fill="white"/>
<defs>
<clipPath id="clip0_1040_53">
<rect width="20.8" height="20.8" fill="white"/>
</clipPath>
</defs>
</svg>
