<svg width="83" height="21" viewBox="0 0 83 21" fill="none" xmlns="http://www.w3.org/2000/svg">
<path d="M33.3856 14.3341C33.3856 14.1571 33.2676 14.0392 33.0316 13.9802V13.8622C33.1496 13.8622 33.592 13.8917 33.71 13.8917C33.7985 13.8917 34.2408 13.8622 34.3588 13.8622V13.9802C34.1524 14.0392 34.0344 14.1572 34.0344 14.3341V16.5461C34.0344 17.254 34.4178 17.6374 35.2141 17.6374C35.9219 17.6374 36.4528 17.3129 36.4528 16.5756V14.3046C36.4528 14.1276 36.3348 14.0097 36.0989 13.9507V13.8622C36.1874 13.8622 36.5413 13.8917 36.6593 13.8917C36.7772 13.8917 37.1312 13.8622 37.2196 13.8622V13.9802C36.9542 14.0392 36.8657 14.1572 36.8657 14.3341V16.4871C36.8657 17.4604 36.3054 18.0208 35.0961 18.0208C33.9754 18.0208 33.3855 17.5194 33.3855 16.6051L33.3856 14.3341ZM38.2224 17.8437C38.4878 17.7847 38.5763 17.6667 38.5763 17.4898V14.4226C38.5763 14.1572 38.4288 14.0392 38.1929 13.9802V13.8622H39.0482L41.7026 16.9884V14.334C41.7026 14.157 41.5846 14.0391 41.3487 13.9801V13.8621C41.4372 13.8621 41.7911 13.8916 41.909 13.8916C42.027 13.8916 42.3809 13.8621 42.4694 13.8621V13.9801C42.204 14.0391 42.086 14.157 42.086 14.334V18.0205H41.9385C41.85 17.9911 41.6436 17.9026 41.3487 17.5782L38.9597 14.8058V17.5192C38.9597 17.6961 39.0482 17.8141 39.3136 17.8731V17.9911C39.2251 17.9911 38.8712 17.9616 38.7532 17.9616C38.6353 17.9616 38.2813 17.9911 38.1929 17.9911L38.2224 17.8437ZM59.2212 17.0179H59.3392C59.3982 17.2538 59.5162 17.4603 59.7226 17.5783C59.8996 17.7257 60.224 17.7847 60.4599 17.7847C60.9908 17.7847 61.3447 17.5193 61.3447 17.1064C61.3447 16.664 60.9023 16.4575 60.401 16.1921C60.0176 15.9856 59.2507 15.6907 59.2507 14.9534C59.2507 14.2751 59.7816 13.8327 60.6074 13.8327C61.1678 13.8327 61.4037 13.9801 61.7871 13.9506V14.7764H61.6692C61.5217 14.2751 61.0793 14.1276 60.5779 14.1276C60.0176 14.1276 59.8406 14.452 59.8406 14.7469C59.8406 15.1893 60.283 15.4253 60.7844 15.6612C61.3447 15.8972 61.9641 16.2216 61.9641 16.9294C61.9641 17.6078 61.4332 18.0796 60.4894 18.0796C59.929 18.0796 59.5751 17.9027 59.2802 17.8732L59.2212 17.0179ZM70.635 16.2511L69.5438 14.5109C69.3668 14.216 69.2193 14.0391 69.0129 13.9801V13.8621C69.1603 13.8621 69.5732 13.8916 69.6617 13.8916C69.7797 13.8916 70.1926 13.8621 70.3696 13.8621V13.9801C70.2221 14.0096 70.1631 14.0686 70.1631 14.1865C70.1631 14.275 70.2221 14.393 70.2811 14.511C70.3401 14.5994 71.0774 15.8381 71.0774 15.8381L71.8442 14.511C71.9327 14.3635 71.9622 14.2455 71.9622 14.1571C71.9622 14.0686 71.9032 14.0096 71.7852 14.0096V13.8621C71.9032 13.8621 72.1981 13.8916 72.2866 13.8916C72.3751 13.8916 72.6995 13.8621 72.8175 13.8621V13.9801C72.5225 14.0981 72.3456 14.3635 72.1686 14.6584L71.1954 16.3101M71.2543 16.1036V17.4898C71.2543 17.6373 71.3723 17.8142 71.6083 17.8437V17.9617C71.4903 17.9617 71.0479 17.9322 70.9299 17.9322C70.8119 17.9322 70.399 17.9617 70.2516 17.9617V17.8437C70.4875 17.7847 70.6055 17.6372 70.6055 17.4898V16.1626M50.5214 13.8621H53.0578C53.1463 13.8621 53.2643 13.8621 53.3527 13.8031H53.4707L53.4412 14.6289H53.3232C53.2348 14.3635 53.1168 14.157 52.6449 14.157H51.5537V15.6317H52.409C52.5269 15.6317 52.6744 15.6317 52.7334 15.6022C52.9104 15.5727 52.9988 15.4548 53.0578 15.2778H53.1758V16.31H53.0578C52.9988 16.1331 52.9398 16.0151 52.7334 15.9856C52.6744 15.9561 52.5269 15.9561 52.409 15.9561H51.5537V17.6373H52.7629C53.2938 17.6373 53.4412 17.4308 53.5592 17.1064H53.6772L53.5592 17.9617C53.1758 17.9322 52.9398 17.9322 52.4975 17.9322H51.2293C51.1113 17.9322 50.6689 17.9617 50.5214 17.9617V17.8437C50.7574 17.7847 50.8753 17.6962 50.8753 17.4603V14.3341C50.8753 14.1277 50.7574 14.0097 50.5214 13.9802L50.5214 13.8621ZM44.0329 14.3635C44.0329 14.157 43.9149 14.0391 43.679 13.9801V13.8621C43.8264 13.8621 44.2393 13.8916 44.3868 13.8916C44.5048 13.8916 44.9472 13.8621 45.0946 13.8621V13.9801C44.8587 14.0391 44.7112 14.1275 44.7112 14.3635V17.4602C44.7112 17.6666 44.8292 17.7846 45.0946 17.8436V17.9615C44.9472 17.9615 44.5343 17.932 44.3868 17.932C44.2688 17.932 43.8264 17.9615 43.679 17.9615V17.8436C43.9444 17.7846 44.0624 17.6961 44.0624 17.4602L44.0329 14.3635ZM63.2921 14.3635C63.2921 14.157 63.1741 14.0391 62.9382 13.9801V13.8621C63.0856 13.8621 63.528 13.8916 63.646 13.8916C63.764 13.8916 64.2064 13.8621 64.3538 13.8621V13.9801C64.1179 14.0391 63.9999 14.1275 63.9999 14.3635V17.4602C63.9999 17.6666 64.1179 17.7846 64.3538 17.8436V17.9615C64.2064 17.9615 63.7935 17.932 63.646 17.932C63.528 17.932 63.0856 17.9615 62.9382 17.9615V17.8436C63.2036 17.7846 63.2921 17.6961 63.2921 17.4602V14.3635ZM66.8312 13.8916C65.445 13.8916 65.209 13.8621 64.9436 13.8326V14.6584H65.0616C65.1795 14.275 65.386 14.1865 65.6514 14.1865H66.5362V17.4307C66.5362 17.6371 66.4182 17.7551 66.1528 17.8141V17.9321C66.3003 17.9321 66.7427 17.9026 66.8606 17.9026C66.9786 17.9026 67.421 17.9321 67.5685 17.9321V17.8141C67.3325 17.7551 67.1851 17.6371 67.1851 17.4307V14.1865H68.0403C68.3058 14.1865 68.5122 14.275 68.6302 14.6584H68.7482V13.8326C68.4237 13.8621 68.2174 13.8916 66.8312 13.8916ZM55.7124 17.4602C55.7124 17.6666 55.8303 17.7846 56.0958 17.8436V17.9616C55.9483 17.9616 55.5059 17.9321 55.3879 17.9321C55.27 17.9321 54.8571 17.9616 54.7096 17.9616V17.8436C54.9456 17.7846 55.0635 17.6961 55.0635 17.4602V14.334C55.0635 14.1275 54.9456 14.0096 54.7096 13.9801V13.8621C54.8571 13.8621 55.27 13.8916 55.3879 13.8916C55.5944 13.8916 56.1548 13.8621 56.3907 13.8621C57.364 13.8621 57.8949 14.275 57.8949 14.9534C57.8949 15.4842 57.482 15.8676 56.8626 16.0151C56.8626 16.0151 57.0101 16.1036 57.1576 16.251C57.3345 16.4575 57.8064 17.1063 57.9834 17.3423C58.1603 17.5782 58.4258 17.8437 58.6912 17.8437V17.9321C58.5732 17.9616 58.3668 17.9911 58.2193 17.9911C57.8949 17.9911 57.6295 17.8731 57.364 17.5782C57.1281 17.3128 56.7742 16.7524 56.5382 16.4575C56.3908 16.2805 56.2138 16.1331 55.9189 16.0741C55.8599 16.0741 55.8009 16.0446 55.7419 16.0446L55.7124 17.4602ZM55.7124 15.8085C55.8303 15.838 56.0368 15.838 56.2137 15.838C56.9806 15.838 57.2165 15.3956 57.2165 15.0122C57.2165 14.4519 56.8626 14.1274 56.1843 14.1274C56.0368 14.1274 55.8598 14.1569 55.7124 14.1864V15.8085ZM46.0388 14.3633C45.9503 14.1569 45.8028 14.0094 45.5669 13.9799V13.862C45.7143 13.862 46.2157 13.8915 46.3337 13.8915C46.4222 13.8915 46.8646 13.862 47.012 13.862V13.9799C46.8941 14.0094 46.7171 14.0684 46.7171 14.2159C46.7171 14.3044 46.7761 14.4518 46.8941 14.6878L47.9558 17.0768L48.9585 14.6878C49.047 14.4813 49.106 14.3339 49.106 14.2454C49.106 14.1274 48.988 14.0389 48.8111 14.0094V13.862C48.9291 13.862 49.2535 13.8915 49.3714 13.8915C49.4599 13.8915 49.8433 13.862 49.9908 13.862V13.9799C49.7549 14.0389 49.5779 14.1864 49.4599 14.5108L47.9852 17.9614H47.6608L46.0388 14.3633ZM49.8138 3.48049C49.6368 3.09709 49.3714 2.83164 48.9585 2.74316V2.53671C49.2239 2.53671 50.1382 2.5662 50.3447 2.5662C50.5216 2.5662 51.4064 2.53671 51.7013 2.53671V2.74316C51.4654 2.80215 51.1705 2.92012 51.1705 3.18555C51.1705 3.36251 51.2884 3.62794 51.4949 4.07033L53.5005 8.61221L55.3881 4.07033C55.5355 3.71642 55.6535 3.42149 55.6535 3.21503C55.6535 2.97908 55.4175 2.80214 55.1226 2.74315V2.53669C55.3881 2.53669 55.9779 2.56619 56.1844 2.56619C56.3613 2.56619 57.0691 2.53669 57.3641 2.53669V2.74315C56.8922 2.86112 56.5973 3.15604 56.3318 3.7459L53.5594 10.2933H52.9401L49.8138 3.48049ZM22.9746 10.0279C23.3285 9.93945 23.594 9.79198 23.594 9.37908V3.39202C23.594 3.00862 23.358 2.83166 22.9746 2.74318V2.50723C23.1516 2.50723 23.9774 2.53672 24.1838 2.53672C24.4198 2.53672 25.2751 2.50723 25.452 2.50723V2.71368C25.0981 2.80216 24.8327 2.94963 24.8327 3.36253V5.89898H29.3156V3.39202C29.3156 2.97913 29.0796 2.80216 28.6962 2.74318V2.50723C28.8732 2.50723 29.7284 2.53672 29.9644 2.53672C30.1709 2.53672 30.9966 2.50723 31.2031 2.50723V2.71368C30.8492 2.80216 30.5837 2.94963 30.5837 3.36253V9.34959C30.5837 9.73299 30.8197 9.90995 31.2031 9.99844V10.2049C31.0261 10.2049 30.1709 10.1754 29.9644 10.1754C29.7284 10.1754 28.9027 10.2049 28.6962 10.2049V10.0279C29.0501 9.93945 29.3156 9.79198 29.3156 9.37908V6.5477H24.8327V9.37908C24.8327 9.79198 25.0686 9.93945 25.452 10.0279V10.2344C25.2751 10.2344 24.3903 10.2049 24.1838 10.2049C23.9774 10.2049 23.1811 10.2344 22.9746 10.2344V10.0279ZM74.6468 10.0279C75.1187 9.93945 75.3547 9.76249 75.3547 9.34959V3.39202C75.3547 2.97913 75.0892 2.80216 74.6468 2.74318V2.50723C74.9123 2.50723 75.7381 2.53672 75.974 2.53672C76.3574 2.53672 77.3897 2.44824 78.2155 2.44824C80.9585 2.44824 82.6394 3.98191 82.6394 6.31176C82.6394 8.58277 80.8993 10.2638 78.0681 10.2638C77.2423 10.2638 76.2985 10.2048 75.915 10.2048C75.6791 10.2048 74.9123 10.2343 74.6468 10.2343V10.0279ZM76.5934 9.64453C76.8884 9.70351 77.3897 9.73301 77.8026 9.73301C80.1031 9.73301 81.3122 8.34683 81.3122 6.40037C81.3122 4.3948 80.044 2.97925 77.8911 2.97925C77.4487 2.97925 76.8884 3.00875 76.5934 3.06773V9.64453ZM43.5321 9.32011C43.5321 9.70351 43.7975 9.93946 44.2399 10.0279V10.2344C43.9745 10.2344 43.1487 10.2049 42.8832 10.2049C42.6768 10.2049 41.851 10.2344 41.5855 10.2344V10.0279C42.0279 9.93946 42.2639 9.73301 42.2639 9.32011V3.42153C42.2639 3.06762 42.0574 2.83167 41.5855 2.74319V2.50724C41.851 2.50724 42.6473 2.53674 42.8832 2.53674C43.2666 2.53674 44.3284 2.47775 44.7708 2.47775C46.6289 2.47775 47.6612 3.24457 47.6612 4.5423C47.6612 5.57455 46.8944 6.25293 45.7146 6.54787C45.7146 6.54787 45.9801 6.69534 46.2455 7.01975C46.5699 7.40315 47.4842 8.70089 47.8382 9.14329C48.1921 9.58568 48.664 10.0871 49.1653 10.0871V10.264C48.9294 10.323 48.546 10.3525 48.2511 10.3525C47.6317 10.3525 47.1303 10.1165 46.6289 9.52669C46.216 9.02531 45.4787 7.93404 45.0657 7.40315C44.8003 7.04924 44.4759 6.7838 43.886 6.69532C43.7681 6.66583 43.6501 6.66583 43.5321 6.63633L43.5321 9.32011ZM43.5321 6.19393C43.768 6.22342 44.1514 6.25292 44.5053 6.25292C45.9505 6.25292 46.3929 5.42711 46.3929 4.68975C46.3929 3.65751 45.6851 3.00862 44.4464 3.00862C44.1809 3.00862 43.7975 3.03811 43.5321 3.0971V6.19393ZM67.8935 9.32011C67.8935 9.70351 68.159 9.93946 68.6013 10.0279V10.2344C68.3359 10.2344 67.5101 10.2049 67.2742 10.2049C67.0677 10.2049 66.2419 10.2344 65.9765 10.2344V10.0279C66.4189 9.93946 66.6548 9.73301 66.6548 9.32011V3.42153C66.6548 3.06762 66.4484 2.83167 65.9765 2.74319V2.50724C66.2419 2.50724 67.0382 2.53674 67.2742 2.53674C67.6576 2.53674 68.7194 2.47775 69.1323 2.47775C70.9904 2.47775 72.0226 3.24457 72.0226 4.5423C72.0226 5.57455 71.2558 6.25293 70.0761 6.54787C70.0761 6.54787 70.3415 6.69534 70.6069 7.01975C70.9314 7.40315 71.8456 8.70089 72.1996 9.14329C72.5535 9.58568 73.0254 10.0871 73.5268 10.0871V10.264C73.2908 10.323 72.9074 10.3525 72.6125 10.3525C71.9931 10.3525 71.4918 10.1165 70.9903 9.52669C70.5774 9.02531 69.8401 7.93404 69.4272 7.40315C69.1617 7.04924 68.8373 6.7838 68.2475 6.69532C68.1295 6.66583 68.0115 6.66583 67.8935 6.63633L67.8935 9.32011ZM67.8935 6.19393C68.1295 6.22342 68.5129 6.25292 68.8668 6.25292C70.312 6.25292 70.7544 5.42711 70.7544 4.68975C70.7544 3.65751 70.0465 3.00862 68.8078 3.00862C68.5424 3.00862 68.1589 3.03811 67.8935 3.0971V6.19393ZM32.3245 10.028C32.8259 9.90999 33.0913 9.58557 33.2683 9.17266L35.7457 3.21509C35.8637 2.97914 35.9817 2.47776 35.9817 2.47776H36.6895C36.6895 2.47776 36.8075 2.97914 36.9255 3.24458L39.5504 9.20215C39.7274 9.61505 39.9338 9.90998 40.4647 10.028V10.2344C40.1697 10.2344 39.3145 10.2049 39.108 10.2049C38.9015 10.2049 38.0758 10.2344 37.7808 10.2344V10.028C38.1642 9.93948 38.2822 9.73302 38.2822 9.55607C38.2822 9.40861 38.2232 9.20216 38.1347 9.0252L37.5744 7.75701H34.684L34.1826 9.0547C34.1236 9.20217 34.0646 9.40861 34.0646 9.55607C34.0646 9.76253 34.1826 9.93948 34.5955 10.0575V10.2639C34.3301 10.2639 33.6517 10.2344 33.5043 10.2344L32.3835 10.2639L32.3245 10.028ZM37.2498 7.13758L36.0111 4.2767L34.8609 7.13758H37.2498ZM56.8623 10.028C57.3637 9.90999 57.6292 9.58557 57.8061 9.17266L60.2836 3.21509C60.4015 2.97914 60.5195 2.47776 60.5195 2.47776H61.2273C61.2273 2.47776 61.3453 2.97914 61.4633 3.24458L64.0882 9.20215C64.2652 9.61505 64.4716 9.90998 65.0025 10.028V10.2344C64.7076 10.2344 63.8523 10.2049 63.6458 10.2049C63.4394 10.2049 62.6136 10.2344 62.3186 10.2344V10.028C62.702 9.93948 62.82 9.73302 62.82 9.55607C62.82 9.40861 62.761 9.20216 62.6726 9.0252L62.1122 7.75701H59.2218L58.7204 9.0547C58.6614 9.20217 58.6025 9.40861 58.6025 9.55607C58.6025 9.76253 58.7204 9.93948 59.1333 10.0575V10.2639C58.8679 10.2639 58.1896 10.2344 58.0421 10.2344L56.9214 10.2639V10.028H56.8623ZM61.7581 7.13758L60.5194 4.2767L59.3692 7.13758H61.7581Z" fill="white"/>
<path d="M0.115662 0.118866H17.3687V6.63681C17.3687 9.61552 16.248 15.9565 8.81571 20.6755C8.81571 20.6755 0.7346 17.3134 0.115234 6.63681L0.115662 0.118866Z" fill="#E91315"/>
<path d="M5.79317 10.4018C5.74986 10.4 5.71228 10.4216 5.682 10.4478C5.62299 10.499 5.58765 10.5697 5.5858 10.5734C5.51998 10.6656 5.38148 10.6888 5.25573 10.6852C5.12998 10.6816 5.02186 10.6529 5.02186 10.6529L5.01495 10.6511L5.00803 10.6535C4.82725 10.7138 4.74678 10.7906 4.71368 10.8568C4.69713 10.8899 4.69294 10.9199 4.69294 10.9415C4.69294 10.9585 4.6951 10.966 4.6964 10.9709V11.6466C4.68982 11.6838 4.67256 11.7066 4.64859 11.7226C4.62428 11.7388 4.59187 11.7474 4.55931 11.7508C4.49418 11.7577 4.43085 11.7439 4.43085 11.7439H4.43027C4.20349 11.6986 4.04799 11.7517 3.951 11.8177C3.85561 11.8825 3.8175 11.958 3.81621 11.9605C3.7192 12.0918 3.78338 12.2762 3.78338 12.2762V12.2773C3.78966 12.2941 3.79695 12.31 3.80527 12.3246C3.80536 12.3249 3.80642 12.328 3.80642 12.328C3.8949 12.564 4.21943 12.5636 4.21943 12.5636C4.3374 12.6521 4.54373 12.593 4.54373 12.593C4.60435 12.593 4.63959 12.6182 4.66124 12.65C4.672 12.6935 4.667 12.737 4.667 12.737L4.66642 12.7422L4.66757 12.7468C4.66955 12.7546 4.67364 12.7956 4.67564 12.8516C4.67764 12.9077 4.67841 12.9815 4.67909 13.0671C4.68048 13.2382 4.67978 13.4558 4.67794 13.6696C4.67425 14.0971 4.66699 14.51 4.66699 14.51C4.66699 14.6542 4.63877 14.7387 4.63877 14.7387L4.63762 14.7421V14.7461C4.63762 14.7533 4.63526 14.757 4.62725 14.7634C4.61924 14.7698 4.60515 14.7769 4.58635 14.7819C4.54875 14.7919 4.49484 14.7957 4.44062 14.7957C4.33217 14.7957 4.22231 14.7813 4.22231 14.7813L4.21942 14.7807L4.21653 14.7813C3.90941 14.812 3.81432 15.0877 3.81331 15.0906V15.0912C3.78896 15.1484 3.79109 15.2065 3.80754 15.2588C3.8158 15.2851 3.8278 15.3102 3.84153 15.3337C3.89635 15.4676 4.04257 15.5722 4.04257 15.5722C4.04257 15.6312 4.60305 15.6603 4.60305 15.6603C4.63702 15.6688 4.66014 15.6927 4.67736 15.7214C4.67907 15.7266 4.68113 15.7316 4.68254 15.7369C4.69633 15.7886 4.69637 15.8372 4.69637 15.8372C4.69217 15.8529 4.69056 15.8705 4.68945 15.8959C4.68821 15.9245 4.6876 15.9599 4.6883 15.9996C4.68968 16.079 4.69428 16.1761 4.69982 16.2703C4.7109 16.4587 4.72574 16.6355 4.72574 16.6355L4.72633 16.6367V16.6378C4.72946 16.6566 4.73862 16.6729 4.74994 16.6874C4.74995 16.6874 4.75053 16.6926 4.75053 16.6926C4.78002 16.8695 5.34038 16.8106 5.34038 16.8106C5.34038 16.8106 7.30449 16.7653 7.83523 16.7738C7.91104 16.7749 7.95747 16.7776 7.96484 16.7813C8.02382 16.7813 8.17163 16.7519 8.17163 16.7519L8.37785 16.8994C8.4608 16.9639 8.54673 16.9823 8.62554 16.9771C8.6413 16.9763 8.65707 16.9741 8.6722 16.9714C8.82341 16.944 8.93832 16.84 8.93832 16.84L9.23326 16.7813C9.29224 16.7813 11.6814 16.7519 11.6814 16.7519C11.8878 16.8109 11.9763 16.7219 11.9763 16.7219L12.3594 16.6926C12.3741 16.6926 12.3879 16.6914 12.4008 16.6891C12.4945 16.672 12.5427 16.597 12.5679 16.5238C12.5754 16.5093 12.5833 16.4948 12.5886 16.48C12.6199 16.3941 12.6192 16.3095 12.6192 16.3095V15.8107C12.6241 15.7712 12.6332 15.7404 12.6433 15.7128C12.6971 15.618 12.7724 15.6016 12.7724 15.6016L13.1261 15.5422L13.3035 15.4541C13.3715 15.4371 13.4074 15.3895 13.4279 15.332C13.4331 15.3238 13.4387 15.316 13.4429 15.3072C13.4673 15.2553 13.4746 15.1947 13.4746 15.1373C13.4746 15.0224 13.444 14.9167 13.444 14.9167L13.4435 14.9143L13.4429 14.912C13.3783 14.7828 13.2294 14.7302 13.1007 14.7075C12.9721 14.6848 12.8588 14.6925 12.8588 14.6925H12.8582C12.7162 14.7067 12.6627 14.666 12.6382 14.6263C12.6137 14.5865 12.6192 14.5433 12.6192 14.5433V14.5415L12.6491 12.7138C12.6608 12.6453 12.6807 12.5907 12.7004 12.5462C12.7234 12.502 12.743 12.4753 12.743 12.4753C12.8315 12.5048 13.1261 12.416 13.1261 12.416C13.2956 12.399 13.3661 12.2951 13.3968 12.2092C13.3995 12.2042 13.4036 12.1992 13.406 12.1942C13.4449 12.1126 13.4446 12.0374 13.4446 12.0352C13.4604 11.9196 13.3799 11.824 13.3 11.7593C13.2198 11.6943 13.1359 11.6568 13.1359 11.6568L13.1312 11.6544H12.7171C12.7056 11.652 12.6963 11.646 12.6866 11.6331C12.6766 11.6199 12.6671 11.6004 12.6601 11.5766C12.6459 11.5291 12.6394 11.4649 12.6376 11.4015C12.634 11.2748 12.6485 11.1509 12.6485 11.1509L12.6491 11.1492V10.912C12.6491 10.7973 12.5672 10.7167 12.4901 10.6666C12.4131 10.6165 12.3369 10.594 12.3369 10.594L12.3334 10.5929H11.8075C11.7956 10.5732 11.7824 10.5539 11.7626 10.5411C11.7365 10.5241 11.7062 10.5115 11.6773 10.5019C11.6196 10.4826 11.5662 10.4754 11.5662 10.4754C11.47 10.4452 11.3271 10.4455 11.3271 10.4455H11.3196L11.3133 10.4495C11.1297 10.5766 10.8075 10.6299 10.5328 10.6482C10.258 10.6666 10.031 10.6523 10.031 10.6523L9.10592 10.5924L9.09785 10.5999C9.10057 10.5972 9.09471 10.6019 9.08518 10.6051C9.07565 10.6082 9.06197 10.6121 9.04659 10.6154C9.01581 10.6221 8.97668 10.6284 8.93829 10.6339C8.86151 10.6448 8.78795 10.6523 8.78795 10.6523L8.77297 10.6535L8.76779 10.6684C8.74237 10.7447 8.66525 10.771 8.66525 10.771L8.58403 10.7986C8.53014 10.7528 8.44607 10.718 8.36629 10.6938C8.2821 10.6681 8.21221 10.6541 8.20904 10.6534C8.20845 10.6532 8.20785 10.6526 8.2073 10.6523C8.20449 10.6512 8.20167 10.6505 8.19923 10.6499C8.19435 10.6488 8.18971 10.6482 8.18368 10.6476C8.17162 10.6464 8.15611 10.6461 8.13702 10.6458C8.09884 10.6455 8.04666 10.6467 7.98495 10.6488C7.86154 10.6529 7.70015 10.6609 7.53968 10.6701C7.21905 10.6885 6.90258 10.7109 6.90201 10.711C6.53636 10.7256 6.2894 10.6669 6.13416 10.6056C5.97892 10.5442 5.91758 10.4823 5.91758 10.4823C5.87863 10.4291 5.83563 10.4035 5.79317 10.4018ZM5.79143 10.4501C5.81724 10.4513 5.84712 10.4657 5.88129 10.5135L5.88188 10.5146L5.88303 10.5164C5.88303 10.5164 5.95452 10.5867 6.11633 10.6506C6.27813 10.7146 6.53209 10.7744 6.90377 10.7595H6.90551C6.90551 10.7595 7.22206 10.737 7.5426 10.7186C7.70286 10.7094 7.86405 10.7014 7.98672 10.6973C8.04806 10.6952 8.10026 10.6941 8.13707 10.6943C8.15548 10.6945 8.16994 10.6952 8.1797 10.6961C8.18377 10.6964 8.18642 10.697 8.18834 10.6972L8.18949 10.6984L8.1964 10.7001C8.1964 10.7001 8.26957 10.7145 8.35309 10.7399C8.4366 10.7653 8.53131 10.8041 8.56795 10.8407L8.57832 10.8511L8.68086 10.8171C8.68086 10.8171 8.74379 10.7802 8.78627 10.7163C8.75343 10.7961 8.67279 10.8234 8.67279 10.8234L8.58466 10.8828C8.49618 10.7943 8.20101 10.7353 8.20101 10.7353C8.17152 10.7058 6.90321 10.7941 6.90321 10.7941C6.16588 10.8235 5.90034 10.5585 5.90034 10.5585C5.75287 10.352 5.60541 10.6466 5.60541 10.6466C5.45794 10.853 5.01555 10.7353 5.01555 10.7353C4.85232 10.7897 4.77926 10.8564 4.74539 10.9127C4.74769 10.9024 4.75123 10.8912 4.75749 10.8787C4.78308 10.8276 4.85197 10.7586 5.02073 10.7013C5.0302 10.7037 5.12878 10.73 5.25517 10.7336C5.38749 10.7373 5.54391 10.716 5.62557 10.6017L5.62672 10.6005L5.62788 10.5988C5.62788 10.5988 5.66366 10.5275 5.71371 10.4841C5.73873 10.4624 5.76562 10.4491 5.79143 10.4501ZM11.3341 10.4945C11.3446 10.4946 11.4781 10.4963 11.5559 10.5221L11.5582 10.5227L11.5599 10.5233C11.5599 10.5233 11.6102 10.5304 11.663 10.548C11.6894 10.5569 11.7165 10.568 11.7373 10.5815C11.7407 10.5835 11.7424 10.5861 11.7454 10.5884C11.6746 10.5448 11.5634 10.5284 11.5634 10.5284C11.4749 10.499 11.3272 10.4991 11.3272 10.4991C10.9438 10.7645 10.0294 10.7059 10.0294 10.7059L9.11522 10.6465C9.08606 10.6757 8.80101 10.7046 8.79437 10.7053C8.79561 10.7032 8.79723 10.7017 8.7984 10.6995C8.80269 10.6993 8.87017 10.6925 8.94587 10.6817C8.98489 10.6761 9.02479 10.6698 9.05762 10.6627C9.07403 10.6591 9.08857 10.6552 9.10082 10.6511C9.10769 10.6488 9.11294 10.6449 9.11868 10.6419L10.0282 10.7001C10.0282 10.7001 10.2586 10.7152 10.5369 10.6967C10.8119 10.6783 11.1337 10.6291 11.3341 10.4945ZM11.7961 10.6414H12.326C12.3277 10.642 12.3699 10.6581 12.4188 10.6834C12.3693 10.6587 12.3301 10.6466 12.3301 10.6466H11.799C11.7984 10.6448 11.7968 10.6432 11.7961 10.6414ZM12.4286 10.6886C12.4412 10.6955 12.4516 10.699 12.4649 10.7076C12.4685 10.71 12.4716 10.7132 12.4752 10.7157C12.4593 10.7054 12.4437 10.6965 12.4286 10.6886ZM12.6388 11.6454C12.6421 11.651 12.6448 11.6571 12.6486 11.6621C12.6637 11.682 12.684 11.6974 12.7091 11.7024L12.7114 11.703H13.1204C13.1238 11.7045 13.1972 11.7384 13.2701 11.7975C13.3212 11.8388 13.3661 11.8906 13.3865 11.9478C13.3337 11.8629 13.2363 11.7979 13.1768 11.764C13.1468 11.747 13.1261 11.7381 13.1261 11.7381H12.7137C12.6776 11.7309 12.6541 11.6949 12.6388 11.6454ZM4.70631 11.7353C4.63215 11.8756 4.42578 11.8263 4.42578 11.8263C3.98339 11.7378 3.83592 12.0331 3.83592 12.0331C3.83189 12.0384 3.82956 12.0442 3.82613 12.0498C3.83283 12.0281 3.8419 12.007 3.85608 11.9881L3.85839 11.9846C3.85839 11.9846 3.89201 11.9167 3.97936 11.8573C4.0666 11.798 4.20602 11.7482 4.42118 11.7911C4.42118 11.7911 4.49022 11.8064 4.56518 11.7985C4.60267 11.7946 4.64261 11.7853 4.67636 11.7628C4.6875 11.7554 4.69715 11.7458 4.70631 11.7353ZM12.6009 14.6551C12.6366 14.7094 12.7142 14.7556 12.863 14.741C12.863 14.741 12.9714 14.7338 13.0934 14.7554C13.2152 14.7769 13.3457 14.827 13.3993 14.9334C13.3994 14.9339 13.4027 14.9487 13.4039 14.9535C13.2656 14.7492 12.8613 14.7755 12.8613 14.7755C12.6685 14.7948 12.6153 14.7139 12.6009 14.6551ZM4.66485 14.794C4.66443 14.7954 4.66196 14.8049 4.66196 14.8049C4.66196 14.8196 4.65504 14.8321 4.64295 14.8418C4.63085 14.8514 4.61357 14.8587 4.59283 14.8642C4.46841 14.8974 4.21956 14.8642 4.21956 14.8642C4.00607 14.8856 3.90143 15.0295 3.85954 15.1079C3.85954 15.1079 3.94157 14.8583 4.22187 14.8297C4.22686 14.8302 4.3312 14.8441 4.44133 14.8441C4.49771 14.8441 4.55381 14.8406 4.59916 14.8285C4.62184 14.8225 4.6423 14.8144 4.65849 14.8014C4.66103 14.7994 4.66259 14.7964 4.66485 14.794ZM6.71957 2.21515L6.71093 2.22264C6.25067 2.5966 5.58191 2.42425 5.58191 2.42425L5.57901 2.42368H5.57613C4.92655 2.42368 4.71726 2.45306 4.71726 2.45306L4.70805 2.45483L4.70229 2.46172C4.63515 2.54228 4.55287 2.54115 4.48051 2.52048C4.40988 2.50028 4.35633 2.46074 4.35379 2.45884C4.3405 2.43944 4.31925 2.42839 4.29618 2.42025C4.27006 2.41101 4.24013 2.40562 4.21151 2.40181C4.15425 2.39418 4.10148 2.39376 4.10148 2.39376H4.10033L4.09975 2.39433C3.4525 2.43846 3.0489 2.40141 2.80828 2.35401C2.68797 2.33033 2.60849 2.30381 2.55944 2.28373C2.51037 2.26365 2.49319 2.2509 2.49319 2.2509L2.49609 2.25385C2.4867 2.24447 2.47769 2.24105 2.46671 2.23772C2.45572 2.23438 2.44309 2.23185 2.42926 2.22967C2.40162 2.22531 2.36888 2.22289 2.3371 2.22102C2.27354 2.21719 2.21383 2.21697 2.21383 2.21697H2.19885L2.19194 2.23021C2.16629 2.28151 2.08677 2.38915 2.08077 2.39725C2.07719 2.39839 2.06926 2.40079 2.05484 2.40244C2.03821 2.40421 2.01652 2.4058 1.99206 2.40649C1.94313 2.40795 1.88257 2.40706 1.82386 2.40535C1.70642 2.40169 1.59633 2.3944 1.59633 2.3944L1.59518 2.39383H1.59459C1.47158 2.39383 1.39754 2.43363 1.35612 2.47505C1.31469 2.51648 1.30543 2.56088 1.30543 2.56088L1.30485 2.56265L1.27547 3.12659V3.12836C1.29006 3.30342 1.27239 3.37428 1.26049 3.39333C1.25454 3.40286 1.2544 3.40082 1.25416 3.40082L1.234 3.38759L1.22017 3.40776C1.21248 3.41929 1.18309 3.43489 1.14126 3.44405C1.09942 3.45319 1.04744 3.4578 0.996666 3.45959C0.895124 3.46322 0.800241 3.45614 0.800241 3.45614L0.79794 3.45557L0.795639 3.45614C0.715513 3.46416 0.65555 3.50337 0.613619 3.5558C0.571682 3.60822 0.546524 3.67308 0.531247 3.73609C0.500693 3.86213 0.508782 3.98321 0.508782 3.98321V3.98612C0.524791 4.06616 0.570429 4.12234 0.627444 4.15835C0.68446 4.19436 0.752594 4.21177 0.817529 4.21941C0.94383 4.23427 1.0548 4.2131 1.06119 4.21191H1.06177C1.21877 4.22636 1.27579 4.27488 1.29679 4.31387C1.31783 4.35294 1.30601 4.38703 1.30601 4.38703L1.30486 4.39047V4.39452C1.30486 4.45552 1.31246 4.94048 1.31983 5.41238C1.32718 5.88252 1.33418 6.33469 1.33423 6.33806C1.32722 6.4012 1.31029 6.44087 1.29046 6.46537C1.27062 6.48988 1.24798 6.50047 1.22479 6.50511C1.17841 6.5144 1.13205 6.49591 1.13205 6.49591L1.12744 6.49355H1.12283C0.792912 6.49355 0.641212 6.60869 0.577894 6.72741C0.514876 6.84557 0.538499 6.96248 0.538723 6.96359C0.554906 7.17771 0.689867 7.27646 0.816946 7.31496C0.944469 7.35361 1.06637 7.338 1.06637 7.338L1.06348 7.33857C1.2213 7.33857 1.28598 7.38024 1.31348 7.41691C1.34099 7.45358 1.3348 7.48718 1.3348 7.48718L1.33364 7.49468L1.3371 7.50217C1.3361 7.50011 1.34055 7.51722 1.34171 7.53962C1.34286 7.562 1.34353 7.59179 1.34286 7.62602C1.34151 7.69447 1.33686 7.78106 1.33134 7.86565C1.32031 8.03484 1.30542 8.19687 1.30542 8.19687V8.19982L1.306 8.20327C1.33683 8.37284 1.4349 8.44242 1.52317 8.46249C1.60497 8.48106 1.67238 8.46192 1.68274 8.45904H1.68389L4.03811 8.51837C4.37421 8.76321 4.59125 8.77026 4.72128 8.70328C4.84573 8.63916 4.87842 8.52469 4.88257 8.51146L4.92346 8.5178C4.94977 8.52219 5.00128 8.52441 5.07669 8.52645C5.15209 8.52851 5.24986 8.52978 5.36241 8.53048C5.58748 8.53196 5.87133 8.53105 6.15157 8.52934C6.4318 8.52757 6.70868 8.52474 6.91884 8.52244C7.12802 8.52008 7.2713 8.51842 7.2852 8.5184H7.28694C7.38363 8.5399 7.45915 8.53503 7.51735 8.51264C7.57664 8.48984 7.61679 8.44944 7.64292 8.40723C7.69488 8.3233 7.69477 8.23092 7.69477 8.22981V8.22867L7.72414 7.52591C7.73614 7.47973 7.78628 7.44587 7.8382 7.4251C7.88845 7.40499 7.9338 7.39853 7.93728 7.39803C8.26469 7.44131 8.42519 7.32582 8.49545 7.19699C8.56578 7.06805 8.5503 6.93028 8.55017 6.92914V6.92857C8.5346 6.71395 8.4074 6.60804 8.28751 6.56164C8.16748 6.51517 8.05248 6.52362 8.05248 6.52362L8.05422 6.52305C7.89788 6.52305 7.82611 6.46869 7.78982 6.4159C7.75371 6.36338 7.75353 6.31272 7.75353 6.31222V6.31165C7.7617 6.26038 7.76671 6.13327 7.77081 5.96084C7.77496 5.78643 7.77761 5.57082 7.77945 5.36061C7.78314 4.94021 7.78349 4.54207 7.78349 4.54207C7.78349 4.50589 7.80401 4.44759 7.82554 4.40095C7.84437 4.36014 7.85857 4.33644 7.86298 4.32894C8.04463 4.34743 8.18339 4.33658 8.28061 4.30187C8.38211 4.26562 8.4446 4.20641 8.48049 4.14461C8.55146 4.02239 8.51979 3.89354 8.51909 3.89058C8.53254 3.77979 8.5159 3.69599 8.47704 3.6377C8.43728 3.57807 8.37818 3.5448 8.31921 3.52711C8.20485 3.4928 8.09075 3.51366 8.08362 3.51501C7.88178 3.51501 7.81256 3.45906 7.78811 3.41017C7.76368 3.36106 7.78178 3.31145 7.78178 3.31145L7.78237 3.3091L7.78295 3.30674C7.82759 3.02405 7.8129 2.82908 7.78641 2.70421C7.75992 2.57934 7.71959 2.52218 7.71959 2.52218L7.71729 2.51873L7.71326 2.51578C7.68314 2.4957 7.63969 2.48806 7.58711 2.48237C7.53452 2.47667 7.47369 2.47488 7.41603 2.47488C7.3007 2.47488 7.19714 2.48237 7.19714 2.48237L7.18965 2.48294L7.18446 2.48697C7.16335 2.50281 7.14051 2.50104 7.109 2.48521C7.07749 2.46946 7.04205 2.43905 7.00992 2.40514C6.94567 2.33731 6.89472 2.25767 6.89472 2.25767L6.88896 2.24902L6.71957 2.21515ZM15.0663 2.21515L15.0576 2.22264C14.5974 2.5966 13.9286 2.42425 13.9286 2.42425L13.9257 2.42368H13.9222C13.3021 2.42368 13.0933 2.45306 13.0933 2.45306L13.0841 2.45483L13.0784 2.46172C13.0112 2.54228 12.9289 2.54115 12.8566 2.52048C12.787 2.5006 12.7345 2.4624 12.7304 2.45942C12.7172 2.43957 12.6956 2.42848 12.6723 2.42025C12.6461 2.41101 12.6162 2.40562 12.5876 2.40181C12.5303 2.39418 12.4776 2.39376 12.4776 2.39376H12.4764L12.4759 2.39433C11.8286 2.43846 11.425 2.40141 11.1844 2.35401C11.0641 2.33033 10.9846 2.30381 10.9355 2.28373C10.8865 2.26365 10.8693 2.2509 10.8693 2.2509L10.8722 2.25385C10.8628 2.24447 10.8532 2.24105 10.8422 2.23772C10.8313 2.23438 10.8192 2.23185 10.8054 2.22967C10.7777 2.22531 10.7444 2.22289 10.7126 2.22102C10.6491 2.21727 10.5899 2.21697 10.5899 2.21697H10.575L10.568 2.23021C10.5423 2.28163 10.4619 2.39022 10.4563 2.39784C10.4525 2.39898 10.4445 2.40084 10.4304 2.40244C10.4137 2.40421 10.3926 2.4058 10.3682 2.40649C10.3192 2.40795 10.2587 2.40706 10.2 2.40535C10.0825 2.40169 9.97185 2.3944 9.97185 2.3944L9.97126 2.39383H9.97068C9.83348 2.39383 9.75284 2.43262 9.70743 2.4739C9.66202 2.51519 9.65156 2.56088 9.65156 2.56088V3.15769C9.66612 3.31787 9.64774 3.38136 9.63716 3.39616C9.63186 3.40357 9.63235 3.40082 9.6314 3.40077C9.63046 3.40071 9.62966 3.40077 9.62966 3.40077L9.61007 3.38753L9.59625 3.4077C9.58855 3.41923 9.55916 3.43484 9.51733 3.44399C9.4755 3.45314 9.42294 3.45774 9.37217 3.45953C9.27063 3.46317 9.17575 3.45609 9.17575 3.45609L9.17401 3.45552L9.17171 3.45609C9.08478 3.46399 9.01929 3.50229 8.97297 3.55459C8.92665 3.60688 8.89861 3.67228 8.88138 3.73547C8.84692 3.86183 8.85489 3.98316 8.85489 3.98316V3.98429L8.85547 3.98606C8.87148 4.0661 8.91712 4.12229 8.97413 4.15829C9.03115 4.1943 9.09871 4.21171 9.16365 4.21935C9.28996 4.23422 9.40151 4.21304 9.40789 4.21186H9.40847C9.56547 4.22631 9.62192 4.27483 9.64291 4.31382C9.66395 4.35289 9.6527 4.38697 9.6527 4.38697L9.65212 4.38754V4.38868C9.64654 4.41101 9.64493 4.44914 9.6429 4.5108C9.64087 4.57246 9.63956 4.65401 9.63887 4.74813C9.63749 4.93638 9.63819 5.17629 9.64002 5.41229C9.6437 5.88255 9.65149 6.3346 9.65154 6.33798C9.64453 6.40111 9.62702 6.44079 9.60719 6.46529C9.58736 6.48979 9.56471 6.50039 9.54152 6.50503C9.49514 6.51432 9.44936 6.49582 9.44936 6.49582L9.44475 6.49346H9.43956C9.10965 6.49346 8.95795 6.60861 8.89463 6.72733C8.83161 6.84548 8.85523 6.96239 8.85546 6.9635C8.87164 7.17763 9.0066 7.27638 9.13368 7.31488C9.2612 7.35352 9.38368 7.33791 9.38368 7.33791L9.38079 7.33848C9.52341 7.33848 9.58805 7.37983 9.61984 7.41797C9.65163 7.45612 9.65152 7.49113 9.65152 7.49113V7.49689L9.65382 7.50207C9.65283 7.50001 9.65727 7.51712 9.65843 7.53952C9.65959 7.5619 9.6597 7.59169 9.65902 7.62592C9.65766 7.69437 9.65301 7.78096 9.6475 7.86555C9.63646 8.03474 9.62215 8.19677 9.62215 8.19677L9.62157 8.19972L9.62215 8.20317C9.65298 8.37274 9.75162 8.44232 9.83989 8.46239C9.92162 8.48096 9.989 8.46253 9.99946 8.45944H10.0006L12.3548 8.51877C12.6909 8.76361 12.9074 8.77066 13.0374 8.70368C13.1628 8.63909 13.2031 8.5166 13.2068 8.50495L13.2073 8.50438C13.2179 8.48406 13.2405 8.47443 13.2517 8.47443C13.2574 8.47443 13.2569 8.47557 13.2557 8.47386C13.2546 8.47209 13.2569 8.47329 13.2517 8.48365L13.2373 8.51302L13.2696 8.51821C13.2959 8.5226 13.3474 8.52482 13.4228 8.52686C13.4982 8.52892 13.596 8.53019 13.7085 8.5309C13.9336 8.53238 14.2174 8.53147 14.4977 8.52976C14.7779 8.528 15.0542 8.52516 15.2644 8.52287C15.4745 8.5205 15.6203 8.51882 15.633 8.51882C15.7367 8.54026 15.8158 8.53489 15.8755 8.51248C15.9363 8.48971 15.9762 8.44915 16.0005 8.40649C16.0493 8.32117 16.0403 8.22619 16.0403 8.22619L16.0408 8.22964L16.0702 7.52573C16.0822 7.47955 16.1318 7.44569 16.1837 7.42492C16.2344 7.40463 16.2807 7.39882 16.2834 7.39844C16.6108 7.44172 16.7713 7.32566 16.8415 7.19683C16.9119 7.06789 16.8958 6.93069 16.8957 6.92955V6.92841C16.8801 6.71379 16.7535 6.60788 16.6336 6.56147C16.5136 6.51501 16.398 6.52346 16.398 6.52346L16.4003 6.52288C16.2287 6.52288 16.1584 6.46793 16.1261 6.41632C16.0938 6.36471 16.1002 6.31436 16.1002 6.31436V6.31145C16.1002 6.13719 16.1296 4.54241 16.1296 4.54241V4.54184C16.1296 4.50566 16.1501 4.44735 16.1716 4.40071C16.1904 4.35988 16.2052 4.33618 16.2096 4.3287C16.3913 4.3472 16.53 4.33634 16.6273 4.30163C16.7288 4.26538 16.7912 4.20618 16.8271 4.14437C16.8981 4.02216 16.8664 3.89331 16.8657 3.89034C16.8792 3.77956 16.862 3.69576 16.8231 3.63747C16.7834 3.57784 16.7243 3.54457 16.6653 3.52687C16.5505 3.49243 16.4359 3.51361 16.4297 3.51477C16.2278 3.51477 16.1592 3.45883 16.1347 3.40994C16.1103 3.36105 16.1284 3.31144 16.1284 3.31144L16.1295 3.30671C16.1742 3.02402 16.1595 2.82905 16.133 2.70418C16.1065 2.57931 16.0662 2.52215 16.0662 2.52215L16.0633 2.5187L16.0598 2.51575C16.0297 2.49567 15.9863 2.48803 15.9337 2.48234C15.8811 2.47664 15.8203 2.47485 15.7626 2.47485C15.6473 2.47485 15.5431 2.48234 15.5431 2.48234L15.5362 2.48291L15.5305 2.48696C15.5094 2.50279 15.4871 2.50102 15.4556 2.48519C15.4241 2.46944 15.3881 2.43903 15.3559 2.40512C15.2917 2.3373 15.2413 2.25766 15.2413 2.25766L15.2355 2.24901L15.0663 2.21515Z" fill="black"/>
<path d="M8.78895 20.7632L8.72997 20.7337C8.67098 20.7042 0.619366 17.2241 0 6.63601V9.15527e-05H17.4596V6.60652C17.4596 9.20195 16.6338 15.8082 8.84765 20.7042L8.78895 20.7632ZM0.206454 0.205977V6.60595C0.796312 16.6335 8.1106 20.2317 8.78895 20.5266C16.4277 15.6603 17.2535 9.17189 17.2535 6.60595V0.205977H0.206454Z" fill="black"/>
<path d="M2.59382 2.47842C2.59382 2.47842 2.41686 2.47853 2.44635 2.5965L2.38759 7.07925C2.38759 7.07925 2.38748 7.28593 2.7119 7.31543C2.7119 7.31543 3.12456 7.34492 3.21305 7.31543H4.15717C4.15717 7.31543 4.33402 7.49193 4.33402 7.28547C4.33402 7.28547 4.45176 3.65833 4.39277 2.89149C4.39277 2.89149 4.39266 2.56661 4.12721 2.56661C4.12721 2.56661 3.06593 2.65509 2.97745 2.56661L2.59382 2.47842ZM6.68773 2.48532C6.64885 2.48187 6.58623 2.49292 6.48669 2.53716C6.48669 2.53716 6.51664 2.65547 5.18947 2.59649C5.15998 2.59649 4.65848 2.5962 4.62899 2.80272C4.62899 2.80272 4.59961 4.92626 4.59961 4.98524L4.56966 6.75486L4.54028 7.3741C4.54028 7.3741 4.62876 7.49195 4.68775 7.40347C4.68775 7.40347 5.13014 7.28573 5.42508 7.34472C5.42508 7.34472 6.31021 7.43285 6.51665 7.28539C6.51665 7.28539 6.66401 7.34437 6.6935 7.13792C6.6935 7.13792 6.75237 3.21541 6.72288 3.15642C6.72288 3.15642 6.78175 2.59617 6.75226 2.53719C6.75226 2.53719 6.75253 2.49108 6.68773 2.48532ZM1.82542 2.59534C1.76753 2.59711 1.68325 2.63336 1.5616 2.74395L1.53222 3.33381C1.53222 3.33381 1.53222 3.65822 1.23728 3.62874C1.23728 3.62874 0.912513 3.62874 0.735565 3.77621C0.735565 3.77621 0.647316 4.07068 0.971742 4.04118C0.971742 4.04118 1.47335 4.04147 1.50284 4.24798L1.47289 6.37123C1.47289 6.37123 1.59132 6.7255 1.20791 6.7255C1.20791 6.7255 0.735561 6.69555 0.735561 6.99047C0.735561 6.99047 0.824385 7.22688 1.23728 7.16789C1.23728 7.16789 1.53233 7.22676 1.50284 7.49219V8.02272C1.50284 8.02272 1.47288 8.2294 1.76781 8.2589H3.95034C3.95034 8.2589 4.06842 8.25878 4.06842 8.14081C4.06842 8.14081 4.06854 8.02272 3.89157 8.02272L2.09261 7.96398C2.09261 7.96398 1.79722 8.05269 1.76772 7.6103C1.76772 7.6103 1.79628 3.82315 1.7971 3.65644C1.79712 3.65651 1.79768 3.65821 1.79768 3.65821C1.79768 3.65821 1.79719 3.64429 1.7971 3.64267C1.79711 3.64119 1.79768 3.59953 1.79768 3.59889C1.79713 3.59775 1.79707 3.59775 1.79653 3.59652C1.7934 3.45158 1.79284 2.9385 1.94515 2.68466C1.94515 2.68466 1.9219 2.59246 1.82542 2.59534ZM7.41011 2.60628C7.28356 2.61722 7.28338 2.77333 7.28338 2.77333C7.34237 2.83231 7.37152 3.03888 7.37152 3.03888C7.40101 3.51077 7.37152 4.04152 7.37152 4.54291C7.34202 6.22405 7.28338 7.75772 7.28338 7.75772C7.28338 8.08213 7.10654 7.99331 7.10654 7.99331H5.15953C4.95307 7.99331 4.95332 8.1114 4.95332 8.1114C4.98281 8.28836 5.15953 8.22948 5.15953 8.22948C5.33649 8.25898 7.28335 8.22948 7.28335 8.22948C7.57828 8.25898 7.54891 7.87522 7.54891 7.87522C7.5784 7.19688 7.63704 7.13789 7.63704 7.13789C7.69603 7.1084 8.02069 7.10852 8.02069 7.10852C8.55156 7.13801 8.31563 6.78422 8.31563 6.78422C8.25664 6.69574 7.90262 6.69551 7.90262 6.69551C7.5782 6.725 7.60768 6.37121 7.60768 6.37121L7.63706 4.33615C7.57807 4.15919 7.72577 4.07118 7.72577 4.07118H8.05007C8.49246 4.10067 8.37437 3.80562 8.37437 3.80562C8.37437 3.65815 7.99131 3.59882 7.99131 3.59882C7.6374 3.65781 7.66642 3.45136 7.66642 3.45136V2.95022C7.72541 2.62579 7.51895 2.62592 7.51895 2.62592C7.47472 2.60934 7.43931 2.60375 7.41011 2.60628ZM6.99364 2.67195C6.95601 2.677 6.91461 2.70697 6.87037 2.77333V7.19723C6.87037 7.19723 6.98834 7.58041 7.1653 7.55091C7.1653 7.55091 7.19468 7.46278 7.19468 7.31532L7.25401 3.09759C7.25401 3.09759 7.1567 2.65005 6.99364 2.67195ZM2.24018 2.714C1.97474 2.714 1.94524 3.21572 1.94524 3.21572L1.91529 7.40353C1.94478 7.60998 2.004 7.58038 2.004 7.58038C2.26944 7.40341 2.24018 7.10861 2.24018 7.10861C2.24018 7.10861 2.26955 3.12725 2.26955 3.06827C2.26955 3.00928 2.24018 2.714 2.24018 2.714ZM2.36287 7.43113C2.35028 7.4317 2.33614 7.43378 2.3214 7.43802C2.26242 7.45486 2.18969 7.5056 2.12842 7.62811L2.12727 7.63047L2.12668 7.63284C2.12668 7.63284 2.10918 7.68781 2.12265 7.74171C2.12939 7.76867 2.14664 7.79725 2.17795 7.81199C2.20821 7.82623 2.24831 7.82673 2.30065 7.81256H3.7407L4.12723 7.90184L4.13241 7.9007C4.13241 7.9007 4.16004 7.89433 4.19405 7.88168C4.22806 7.86905 4.26953 7.85055 4.30004 7.82004C4.31529 7.8048 4.32804 7.78599 4.33345 7.76359C4.33885 7.74118 4.33593 7.71549 4.32423 7.69044C4.30085 7.64034 4.2453 7.58938 4.1399 7.52915L4.13414 7.5257H2.74418C2.74203 7.52513 2.67922 7.51148 2.60709 7.49344C2.53374 7.4751 2.44986 7.45083 2.42795 7.43987L2.42679 7.4393H2.42621C2.42621 7.4393 2.40065 7.42909 2.36287 7.43113ZM6.74474 7.50889C6.66179 7.50473 6.54601 7.52157 6.54601 7.52157C6.31006 7.66904 4.92386 7.55095 4.92386 7.55095C4.83538 7.55095 4.71706 7.69842 4.71706 7.69842C4.68757 7.96386 5.13019 7.84588 5.10071 7.84588H6.75221C7.01765 7.90487 7.01776 7.78713 7.01776 7.78713C7.01776 7.69865 6.81155 7.52157 6.81155 7.52157C6.7968 7.51421 6.77239 7.51027 6.74474 7.50889ZM4.56278 7.83953C4.55523 7.8401 4.54769 7.84218 4.54032 7.84587C4.54032 7.84587 4.27476 7.84616 4.27476 8.20014C4.27476 8.20014 4.30426 8.46511 4.5697 8.46511C4.5697 8.46511 4.80588 8.40624 4.80588 8.14081C4.80588 8.14081 4.67619 7.82982 4.56278 7.83953ZM10.9106 2.47839C10.9106 2.47839 10.7336 2.47851 10.7631 2.59648L10.7044 7.07922C10.7044 7.07922 10.7043 7.28591 11.0287 7.3154C11.0287 7.3154 11.4419 7.34489 11.5304 7.3154H12.4739C12.4739 7.3154 12.6508 7.49202 12.6508 7.25607C12.6508 7.25607 12.7691 3.62836 12.7101 2.86152C12.7101 2.86152 12.71 2.53722 12.4446 2.53722C12.4446 2.53722 11.3827 2.6257 11.2942 2.53722L10.9106 2.47839ZM14.993 2.51469C14.9581 2.51615 14.9072 2.52967 14.8334 2.56653C14.8334 2.56653 14.8628 2.68484 13.5356 2.62586C13.5061 2.62586 12.9751 2.59614 12.9751 2.83209C12.9751 2.83209 12.9458 4.95563 12.9458 5.01461L12.9164 6.78423L12.8576 7.40347C12.8576 7.40347 12.9461 7.52133 13.0051 7.43284C13.0051 7.43284 13.4475 7.3151 13.7424 7.37409C13.7424 7.37409 14.627 7.4628 14.8334 7.31533C14.8334 7.31533 14.9808 7.37432 15.0103 7.16786C15.0103 7.16786 15.0691 3.24536 15.0396 3.18637C15.0396 3.18637 15.0991 2.62555 15.0696 2.56656C15.0696 2.56656 15.0696 2.5112 14.993 2.51469ZM10.1129 2.59533C10.055 2.5971 9.97069 2.63335 9.84904 2.74394V3.30385C9.84904 3.30385 9.84904 3.62828 9.5541 3.59878C9.5541 3.59878 9.22991 3.59878 9.05295 3.74625C9.05295 3.74625 8.96413 4.0413 9.28854 4.01181C9.28854 4.01181 9.79015 4.01209 9.81964 4.2186L9.79026 6.34186C9.79026 6.34186 9.90824 6.69554 9.49533 6.69554C9.49533 6.69554 9.02356 6.66617 9.02356 6.9611C9.02356 6.9611 9.11181 7.19693 9.52471 7.13795C9.52471 7.13795 9.81964 7.19739 9.81964 7.46283V7.99336C9.81964 7.99336 9.79038 8.20004 10.0558 8.22954H12.2378C12.2378 8.22954 12.3559 8.22942 12.3559 8.11145C12.3559 8.11145 12.356 7.99336 12.179 7.99336L10.4094 7.96399C10.4094 7.96399 10.1146 8.0527 10.0851 7.61031C10.0851 7.61031 10.1146 3.65774 10.0851 3.59875V3.65808C10.0851 3.65808 10.0556 2.97951 10.2326 2.68459C10.2326 2.68459 10.2093 2.59245 10.1129 2.59533ZM15.7269 2.60627C15.6003 2.61722 15.6002 2.77332 15.6002 2.77332C15.6297 2.8323 15.6889 3.03887 15.6889 3.03887C15.7184 3.51076 15.6889 4.04151 15.6889 4.54291C15.6594 6.22404 15.6002 7.75771 15.6002 7.75771C15.6002 8.08213 15.4233 7.9933 15.4233 7.9933H13.4769C13.2704 7.9933 13.2701 8.11139 13.2701 8.11139C13.2996 8.28835 13.5063 8.22959 13.5063 8.2001C13.6832 8.22959 15.6295 8.2001 15.6295 8.2001C15.9245 8.22959 15.8951 7.84583 15.8951 7.84583C15.9246 7.16749 15.9838 7.10851 15.9838 7.10851C16.0428 7.07902 16.3668 7.07913 16.3668 7.07913C16.8682 7.10863 16.6324 6.75483 16.6324 6.75483C16.5734 6.66635 16.2194 6.66612 16.2194 6.66612C15.895 6.69562 15.9245 6.34182 15.9245 6.34182L15.9544 4.30676C15.8954 4.1298 16.0425 4.04121 16.0425 4.04121H16.3668C16.8092 4.0707 16.6917 3.77623 16.6917 3.77623C16.6917 3.62877 16.3081 3.56944 16.3081 3.56944C15.9542 3.62842 15.9838 3.42197 15.9838 3.42197V2.95021C16.0428 2.62578 15.8363 2.62591 15.8363 2.62591C15.7921 2.60934 15.7561 2.60374 15.7269 2.60627ZM15.3104 2.68289C15.2728 2.68598 15.2314 2.7125 15.1872 2.77332V7.19722C15.1872 7.19722 15.3051 7.5804 15.4821 7.5509C15.4821 7.5509 15.512 7.46277 15.512 7.31531L15.5708 3.09758C15.5708 3.09758 15.4735 2.66951 15.3104 2.68289ZM10.557 2.71399C10.2915 2.71399 10.262 3.21571 10.262 3.21571L10.2327 7.40352C10.2621 7.60998 10.3208 7.58037 10.3208 7.58037C10.5862 7.40341 10.557 7.1086 10.557 7.1086C10.557 7.1086 10.5863 3.12725 10.5863 3.06826C10.5863 3.00927 10.557 2.71399 10.557 2.71399ZM10.7258 7.42656C10.6743 7.42509 10.5793 7.44809 10.4982 7.61032C10.4982 7.61032 10.4392 7.81677 10.6457 7.75779H12.0905L12.4741 7.84592C12.4741 7.84592 12.887 7.75755 12.4741 7.52162H11.0882C11.0882 7.52162 10.8223 7.4624 10.7633 7.43291C10.7633 7.43291 10.7492 7.4273 10.7258 7.42656ZM15.0777 7.47899C15.0028 7.48046 14.9222 7.49223 14.9222 7.49223C14.6862 7.6397 13.3 7.5216 13.3 7.5216C13.2115 7.5216 13.0932 7.66907 13.0932 7.66907C13.0342 7.93451 13.4769 7.81654 13.4769 7.81654H15.1284C15.3938 7.87552 15.3939 7.75778 15.3939 7.75778C15.3939 7.6693 15.1871 7.49223 15.1871 7.49223C15.165 7.48117 15.1226 7.47814 15.0777 7.47899ZM12.9096 7.8102C12.9018 7.81077 12.8945 7.81285 12.8871 7.81654C12.8871 7.81654 12.6214 7.81626 12.6509 8.17023C12.6509 8.17023 12.6804 8.43578 12.9459 8.43578C12.9459 8.43578 13.182 8.40641 13.182 8.11148C13.182 8.11148 13.0262 7.80049 12.9096 7.8102ZM8.52214 13.5382C8.52214 13.5382 8.52214 13.8626 8.49264 14.1871C8.46315 14.364 8.55163 15.1898 8.49264 15.6027C8.49264 15.6027 8.49264 15.7502 8.19771 15.6322C8.19771 15.6322 6.3986 15.6617 6.3691 15.6027C6.3691 15.6027 5.86773 15.6322 5.83823 15.3668C5.83823 15.3668 5.89722 13.4497 5.86773 13.3907C5.86773 13.3907 5.83823 12.3585 5.86773 12.2405C5.86773 12.2405 5.89722 11.2672 5.86773 11.1493C5.86773 11.1493 5.86773 10.9133 5.83823 10.8249C5.83823 10.8249 5.83823 10.6774 6.07418 10.7659C6.07418 10.7659 6.16266 10.9133 6.60505 10.8543C6.60505 10.8543 6.92947 10.9133 7.2539 10.8543C7.2539 10.8543 7.96173 10.7954 8.13868 10.8543C8.13868 10.8543 8.43361 10.7954 8.49259 11.1198V11.9751L8.58107 12.27L8.66954 12.211L8.69904 12.0046V11.0903C8.69904 11.0903 8.75802 10.9133 8.99397 10.8838C8.99397 10.8838 9.34788 10.8543 9.40687 10.8838C9.46585 10.9133 10.2327 10.9428 10.4391 10.9133C10.6456 10.8838 10.6751 11.0608 11.3239 10.7364C11.3239 10.7364 11.5009 10.7364 11.5009 10.8543C11.5009 10.8543 11.4419 12.0341 11.5009 12.27C11.5009 12.27 11.5009 14.4525 11.4419 14.6L11.4714 15.3078C11.4714 15.3078 11.5009 15.6028 10.9995 15.6322C10.9995 15.6322 11.2944 15.6617 9.37735 15.6028C9.37735 15.6028 9.08241 15.5733 8.7285 15.7502C8.7285 15.7502 8.66952 15.7207 8.66952 15.5438C8.66952 15.5438 8.7285 14.8949 8.66952 14.2461L8.64002 13.5382L8.52214 13.5382ZM11.6188 15.4553C11.6188 15.4553 11.7958 15.7797 11.8548 15.8092C11.8548 15.8092 12.0022 15.9862 11.9727 15.6618L12.0022 11.6213C12.0022 11.6213 11.9727 11.4738 12.0022 11.2674L11.8253 10.9724C11.8253 10.9724 11.6483 10.825 11.6483 11.0609V15.3373L11.6188 15.4553ZM5.74974 15.6323C5.74974 15.6323 5.95619 15.8387 6.28061 15.8387L8.1682 15.8682C8.1682 15.8682 8.37466 15.8977 8.37466 15.9862C8.37466 15.9862 8.34516 16.1632 8.07972 16.1042L5.77922 16.0747L5.51378 16.1042C5.51378 16.1042 5.33681 16.0747 5.60225 15.7503L5.74974 15.6323ZM5.33684 11.0019C5.33684 11.0019 5.15988 11.2969 5.18937 11.3853V16.0452C5.18937 16.0452 5.15988 16.3696 5.42532 16.2811C5.42532 16.2811 7.87329 16.2221 8.05025 16.2811C8.05025 16.2811 8.2862 16.3106 8.19772 16.4286C8.19772 16.4286 8.19772 16.5171 8.05025 16.4876C8.05025 16.4876 6.90003 16.6055 5.83823 16.5466C5.83823 16.5466 5.1304 16.5761 5.10091 16.5171C5.10091 16.5171 4.98294 16.4876 4.98294 16.1042C4.98294 16.1042 4.98294 15.7208 4.95344 15.6618C4.95344 15.6618 4.98294 15.4553 4.62903 15.4258C4.62903 15.4258 4.12765 15.5143 4.12765 15.2194C4.12765 15.2194 4.18664 15.0129 4.68801 15.0424C4.68801 15.0424 5.04192 15.1014 4.95346 14.8065L4.98295 12.7419C4.98295 12.7419 5.04194 12.388 4.77649 12.3585H4.48156C4.48156 12.3585 4.06866 12.3585 4.09816 12.1226C4.09816 12.1226 4.24562 11.8866 4.65852 11.9161C4.65852 11.9161 4.95346 11.9751 4.98294 11.6212C4.98294 11.6212 4.98294 10.9133 5.1304 10.8838C5.10091 10.8838 5.4548 10.9134 5.33684 11.0019ZM5.57281 10.9723C5.57281 10.9723 5.66129 10.9723 5.66129 11.1493L5.63179 15.3667C5.63179 15.3667 5.66129 15.6322 5.42534 15.8386C5.42534 15.8386 5.30737 15.9861 5.30737 15.7501L5.36635 11.4442C5.36635 11.4442 5.36635 11.1198 5.57281 10.9723ZM8.87595 15.9271C8.87595 15.9271 9.1119 15.7502 9.22986 15.7796C9.22986 15.7796 10.4981 15.8681 10.8815 15.8091C11.2649 15.7502 11.029 15.7796 11.029 15.7796C11.029 15.7796 11.3534 15.7796 11.4714 15.6617C11.4714 15.6617 11.5598 15.6322 11.6188 15.7207L11.8253 15.9566C11.8253 15.9566 11.8253 16.1041 11.5893 16.0746C11.5893 16.0746 9.31832 16.0746 9.22984 16.1041C9.25934 16.1041 8.84645 16.1631 8.87595 15.9271ZM9.0234 16.3105C9.0234 16.3105 9.20036 16.222 9.31834 16.2515C9.43631 16.281 11.0585 16.222 11.0585 16.222C11.0585 16.222 11.7663 16.281 11.8843 16.1631L12.0612 16.1041C12.0612 16.1041 12.1202 16.0156 12.1202 15.8976V15.3962L12.1497 15.2488V11.3852C12.1497 11.3852 12.2087 11.0903 12.0317 10.9134C12.0317 10.9134 12.0317 10.7954 12.0907 10.8249C12.1497 10.8544 12.1202 10.8249 12.1202 10.8249C12.1202 10.8249 12.3562 10.7659 12.4152 10.8544C12.4152 10.8544 12.5331 11.1788 12.4152 11.3852C12.4152 11.3852 12.3857 11.7981 12.5921 11.7981C12.5921 11.7981 12.6806 11.8866 12.8281 11.8276C12.8281 11.8276 13.182 11.8571 13.182 11.9751C13.182 11.9751 13.182 12.2405 12.946 12.1816L12.6216 12.2111C12.6216 12.2111 12.3856 12.27 12.4151 12.506C12.4446 12.7714 12.4151 14.6885 12.4151 14.6885C12.4151 14.6885 12.4151 14.9245 12.769 14.895C12.769 14.895 13.2114 14.8655 13.2114 15.0129C13.2114 15.0129 13.3294 15.2784 13.005 15.3079C13.005 15.3079 12.4151 15.2784 12.4741 15.4553C12.4741 15.4553 12.4446 15.8387 12.4151 15.9272C12.4151 15.9272 12.4741 16.2517 12.4151 16.3106C12.4151 16.3106 12.3856 16.4876 12.0022 16.4581C12.0022 16.4581 9.61325 16.4581 9.22983 16.4876C9.20034 16.5466 8.96442 16.517 9.0234 16.3105ZM8.61048 16.0452C8.61048 16.0452 8.84643 16.0747 8.84643 16.3106C8.84643 16.5466 8.84643 16.6645 8.72845 16.694C8.58099 16.7235 8.43352 16.6645 8.40404 16.4876C8.34505 16.3106 8.40402 16.1042 8.61048 16.0452Z" fill="white"/>
<path d="M4.21427 4.09984L4.0963 4.36528C4.0963 4.36528 3.80136 5.72196 3.62441 5.98743C3.62441 5.98743 3.59492 6.28236 3.35897 6.04641C3.35897 6.04641 2.79861 4.33578 2.76911 4.27679L2.59215 4.15882C2.59215 4.15882 2.47418 4.01135 2.68063 3.98186H3.2115C3.2115 3.98186 3.38846 4.12933 3.15251 4.2768C3.15251 4.2768 3.18201 4.51275 3.47693 5.36803C3.47693 5.36803 3.56541 5.69245 3.65389 5.45651L3.94883 4.45376L3.86035 4.15882C3.86035 4.15882 3.77187 4.01135 3.88984 4.01135C3.88984 4.01135 4.18479 3.98186 4.21427 4.09984ZM5.01057 4.33578V5.81046L4.98108 5.92843C4.98108 5.92843 4.83361 6.10539 4.95158 6.13489C4.95158 6.13489 4.83361 6.22337 5.83636 6.22337C5.83636 6.22337 6.21977 6.28235 6.1313 5.78098C6.1313 5.78098 6.10181 5.60402 5.95434 5.86946C5.95434 5.86946 5.92484 6.10541 5.39397 6.01693C5.39397 6.01693 5.276 5.92845 5.276 5.81047V5.19112C5.276 5.19112 5.276 5.04365 5.51195 5.04365C5.51195 5.04365 5.77739 5.22061 5.80689 5.13213C5.80689 5.13213 5.89536 4.89618 5.80689 4.77822C5.80689 4.77822 5.68891 4.77822 5.65942 4.80771C5.65942 4.80771 5.57094 4.98467 5.335 4.8667C5.335 4.8667 5.21703 4.63075 5.30551 4.4538C5.30551 4.4538 5.27602 4.09989 5.51196 4.12937C5.51196 4.12937 5.8069 4.18836 5.8069 4.27684C5.8069 4.27684 5.86589 4.4538 5.95437 4.24735L5.89538 4.04089C5.89538 4.04089 5.86589 3.95241 5.77741 3.98191C5.77741 3.98191 5.30553 4.04089 5.24654 3.98191L4.86314 4.0114C4.86314 4.0114 4.80415 4.15887 4.98111 4.21786C4.98111 4.24735 5.01057 4.2768 5.01057 4.33578ZM13.4751 4.09988C13.4456 3.98191 13.7111 3.98191 13.7111 3.98191L13.8585 4.0114C13.947 4.0114 14.065 4.04089 14.065 4.04089C14.1535 4.18836 14.006 4.27684 14.006 4.27684L13.947 4.4538V5.92848C13.9765 5.98747 14.0945 6.13494 14.0945 6.13494C14.0945 6.25291 13.947 6.22342 13.947 6.22342H13.5341C13.4162 6.22342 13.4457 6.07595 13.4457 6.07595C13.5931 6.01696 13.6226 5.75152 13.6226 5.75152V4.36535L13.4751 4.09988ZM11.5875 5.39757L11.558 5.83996L11.676 6.04641C11.7645 6.16438 11.617 6.25287 11.617 6.25287L11.1746 6.19388C11.0862 6.16439 11.1746 6.01692 11.1746 6.01692C11.2926 5.95793 11.2926 5.78097 11.2926 5.78097V4.36531C11.2926 4.30632 11.1746 4.15885 11.1746 4.15885C11.0862 4.15885 11.1157 4.01138 11.1157 4.01138C11.1451 3.9524 11.3811 3.98189 11.3811 3.98189H11.971C12.5313 4.15885 12.4428 4.57175 12.4428 4.57175C12.4723 4.98464 12.0594 5.13211 12.0594 5.13211L12.0299 5.36806L12.4428 6.01691C12.5018 6.07589 12.5018 6.13488 12.5018 6.13488C12.4428 6.28235 12.2069 6.13488 12.2069 6.13488L11.7055 5.33856C11.6465 5.27958 11.5875 5.39757 11.5875 5.39757ZM11.5875 4.27682V5.01415C11.853 5.2206 12.0004 4.92567 12.0004 4.92567C12.3543 4.60125 12.0004 4.27682 11.9414 4.18834C11.8825 4.09986 11.617 4.18834 11.617 4.18834L11.5875 4.27682ZM7.28161 12.5349C7.28161 12.5349 7.31111 13.5671 7.28161 13.7146V13.9506C7.28161 13.9506 7.3406 14.098 7.42908 14.157C7.42908 14.157 7.48807 14.3635 7.3406 14.334C7.3406 14.334 6.98669 14.3045 6.89821 14.334C6.89821 14.334 6.69176 14.334 6.89821 14.098C6.89821 14.098 6.9572 14.0095 6.9572 13.7441C6.9572 13.7441 6.9572 12.5644 6.98669 12.5054C6.98669 12.5054 7.01619 12.3579 6.92771 12.299H6.75074L6.54429 12.5054C6.54429 12.5054 6.4853 12.7119 6.39682 12.5054V12.3874L6.51479 12.063H6.60327C6.60327 12.063 6.72124 12.1515 6.83922 12.181H7.48806L7.72401 12.063C7.72401 12.063 7.81249 12.063 7.783 12.2105C7.783 12.2105 7.81249 12.5349 7.63553 12.5644C7.63553 12.5644 7.51756 12.5349 7.45857 12.3579C7.45857 12.3284 7.28161 12.2105 7.28161 12.5349ZM10.3488 12.1515C10.3488 12.1515 9.81793 12.0925 9.81793 12.6824C9.81793 12.6824 9.75894 13.0658 10.3488 13.3312C10.3488 13.3312 10.7912 13.5377 10.7617 13.8031C10.7617 13.8031 10.7027 14.275 10.2308 14.039C10.2308 14.039 9.99488 13.9211 10.0244 13.8031C10.0244 13.8031 9.96538 13.6556 9.8769 13.6851C9.8769 13.6851 9.78842 13.7146 9.81792 14.1865C9.81792 14.1865 9.81792 14.3635 10.0244 14.1865L10.1423 14.216C10.1423 14.216 10.5257 14.5109 10.8502 14.157C10.8502 14.157 11.2041 13.8326 10.9387 13.4492C10.9387 13.4492 10.7617 13.1542 10.4373 13.0363C10.4373 13.0363 10.1423 12.8888 10.0539 12.6529C10.0539 12.6529 10.1424 12.24 10.5258 12.4464C10.5258 12.4464 10.6732 12.6234 10.7617 12.6529C10.7617 12.6529 10.8797 12.6529 10.8502 12.3874L10.8207 12.181C10.8207 12.181 10.7912 12.0335 10.5847 12.181C10.5847 12.1515 10.4078 12.24 10.3488 12.1515ZM8.66766 11.8565C8.75614 11.9155 8.78563 12.063 8.78563 12.063C9.08056 12.8003 9.3165 13.8916 9.3165 13.8916C9.37549 14.0391 9.52296 14.1276 9.52296 14.1276C9.7589 14.216 9.52296 14.275 9.52296 14.275C9.43448 14.3045 9.11006 14.275 9.11006 14.275C8.9331 14.2455 9.02158 14.1865 9.02158 14.1865C9.08057 14.1276 9.02158 13.8326 9.02158 13.8326C9.02158 13.7147 8.87411 13.5377 8.87411 13.5377C8.81513 13.5082 8.72664 13.6262 8.72664 13.6262C8.72664 13.6262 8.57918 13.6852 8.54968 13.6262C8.52019 13.5672 8.43171 13.5082 8.43171 13.5082C8.25475 13.5082 8.19576 13.9211 8.19576 13.9211C8.28424 14.275 8.19576 14.216 8.19576 14.216C8.10728 14.334 7.84185 14.2455 7.84185 14.2455C7.72388 14.216 7.81236 14.1276 7.81236 14.1276C7.95983 14.0981 8.01882 13.9211 8.01882 13.9211C8.0778 13.8326 8.54969 12.004 8.54969 12.004C8.52019 11.9745 8.54969 11.7976 8.66766 11.8565ZM8.43171 12.8003C8.43171 12.8593 8.31374 13.2722 8.31374 13.2722L8.40222 13.4197H8.69715C8.75614 13.4197 8.78563 13.3607 8.78563 13.2722C8.78563 13.2132 8.63816 12.7708 8.63816 12.7708L8.57918 12.6823L8.43171 12.8003Z" fill="black"/>
</svg>
